<svg xmlns="http://www.w3.org/2000/svg" xmlns:xlink="http://www.w3.org/1999/xlink" width="1024" height="1024" viewBox="0 0 1024 1024">
  <defs>
    <clipPath id="clip-foreground">
      <rect width="1024" height="1024"/>
    </clipPath>
  </defs>
  <g id="foreground" clip-path="url(#clip-foreground)">
    <rect width="1024" height="1024" fill="rgba(221,44,0,0)"/>
    <g id="Groupe_6" data-name="Groupe 6" transform="translate(109.438 109.438)">
      <g id="Groupe_1" data-name="Groupe 1" transform="translate(110.864 110.864)">
        <circle id="Ellipse_1" data-name="Ellipse 1" cx="97.245" cy="97.245" r="97.245" transform="translate(194.454 48.604)" fill="#fff"/>
        <path id="Tracé_4" data-name="Tracé 4" d="M284.169,16H126.142A115.62,115.62,0,0,0,10.666,131.476v60.783A18.238,18.238,0,0,0,28.9,210.49H381.378a18.238,18.238,0,0,0,18.231-18.231V131.476A115.566,115.566,0,0,0,284.169,16Z" transform="translate(86.543 275.698)" fill="#fff"/>
        <g id="Groupe_5" data-name="Groupe 5" transform="translate(0 0)">
          <path id="Tracé_5" data-name="Tracé 5" d="M129.529,8h-48.6A73,73,0,0,0,8,80.925v48.6a24.3,24.3,0,1,0,48.6,0v-48.6A24.338,24.338,0,0,1,80.925,56.6h48.6a24.3,24.3,0,1,0,0-48.6Z" transform="translate(-8 -8)" fill="#fff"/>
          <path id="Tracé_6" data-name="Tracé 6" d="M129.529,117.245h-48.6A24.338,24.338,0,0,1,56.6,92.924V44.32a24.3,24.3,0,1,0-48.6,0v48.6a73,73,0,0,0,72.925,72.925h48.6a24.3,24.3,0,1,0,0-48.6Z" transform="translate(-8 417.547)" fill="#fff"/>
          <path id="Tracé_7" data-name="Tracé 7" d="M92.924,8H44.32a24.32,24.32,0,0,0,0,48.641h48.6a24.338,24.338,0,0,1,24.32,24.32v48.6a24.3,24.3,0,1,0,48.6-.036v-48.6A73,73,0,0,0,92.924,8Z" transform="translate(417.547 -8)" fill="#fff"/>
          <path id="Tracé_8" data-name="Tracé 8" d="M141.565,20a24.314,24.314,0,0,0-24.32,24.32v48.6a24.338,24.338,0,0,1-24.32,24.32H44.32a24.3,24.3,0,1,0,0,48.6h48.6a73,73,0,0,0,72.925-72.925V44.32A24.283,24.283,0,0,0,141.565,20Z" transform="translate(417.547 417.547)" fill="#fff"/>
        </g>
      </g>
      <path id="Tracé_9" data-name="Tracé 9" d="M105.233,196.465A97.233,97.233,0,1,0,8,99.233,97.33,97.33,0,0,0,105.233,196.465Z" transform="translate(297.329 157.481)" fill="#efefef"/>
      <path id="Tracé_10" data-name="Tracé 10" d="M277.467,12h-158A115.6,115.6,0,0,0,4,127.464v60.77a18.238,18.238,0,0,0,18.231,18.231H374.7a18.238,18.238,0,0,0,18.231-18.231v-60.77A115.6,115.6,0,0,0,277.467,12Z" transform="translate(204.097 390.562)" fill="#efefef"/>
      <path id="Tracé_11" data-name="Tracé 11" d="M105.233,2a97.233,97.233,0,0,0,0,194.465Z" transform="translate(297.329 157.481)" fill="#fff"/>
      <path id="Tracé_12" data-name="Tracé 12" d="M198.465,12h-79A115.6,115.6,0,0,0,4,127.464v60.77a18.238,18.238,0,0,0,18.231,18.231H198.465Z" transform="translate(204.097 390.562)" fill="#fff"/>
      <path id="Tracé_13" data-name="Tracé 13" d="M121.541,0H72.924A73.013,73.013,0,0,0,0,72.924v48.616a24.308,24.308,0,0,0,48.616,0V72.924A24.333,24.333,0,0,1,72.924,48.616h48.616a24.308,24.308,0,0,0,0-48.616Z" transform="translate(110.864 110.864)" fill="#efefef"/>
      <path id="Tracé_14" data-name="Tracé 14" d="M139.541,18a24.286,24.286,0,0,0-24.308,24.308V90.924a24.333,24.333,0,0,1-24.308,24.308H42.308a24.308,24.308,0,0,0,0,48.616H90.924a73.013,73.013,0,0,0,72.924-72.924V42.308A24.286,24.286,0,0,0,139.541,18Z" transform="translate(530.411 530.411)" fill="#efefef"/>
      <path id="Tracé_15" data-name="Tracé 15" d="M21.294.883A72.693,72.693,0,0,0,0,52.343V100.96a24.308,24.308,0,0,0,48.616,0V52.343a24.186,24.186,0,0,1,7.049-17.089Z" transform="translate(110.864 131.445)" fill="#fff"/>
      <path id="Tracé_16" data-name="Tracé 16" d="M108.013,21.71a24.229,24.229,0,0,1-17.089,7.049H42.308a24.308,24.308,0,0,0,0,48.616H90.924a72.736,72.736,0,0,0,51.46-21.294Z" transform="translate(530.411 616.884)" fill="#fff"/>
      <path id="Tracé_17" data-name="Tracé 17" d="M121.541,115.233H72.924A24.333,24.333,0,0,1,48.616,90.924V42.308A24.308,24.308,0,0,0,0,42.308V90.924a73.013,73.013,0,0,0,72.924,72.924h48.616a24.308,24.308,0,1,0,0-48.616Z" transform="translate(110.864 530.411)" fill="#efefef"/>
      <path id="Tracé_18" data-name="Tracé 18" d="M90.924,0H42.308a24.308,24.308,0,0,0,0,48.616H90.924a24.333,24.333,0,0,1,24.308,24.308v48.616a24.308,24.308,0,1,0,48.616,0V72.924A73.013,73.013,0,0,0,90.924,0Z" transform="translate(530.411 110.864)" fill="#efefef"/>
      <path id="Tracé_19" data-name="Tracé 19" d="M24.308,18A24.286,24.286,0,0,0,0,42.308V90.924a72.7,72.7,0,0,0,23.53,53.6l34.445-34.445a24.276,24.276,0,0,1-9.359-19.155V42.308A24.286,24.286,0,0,0,24.308,18Z" transform="translate(110.864 530.411)" fill="#fff"/>
      <path id="Tracé_20" data-name="Tracé 20" d="M90.924,0H42.308a24.308,24.308,0,0,0,0,48.616H90.924a24.312,24.312,0,0,1,19.155,9.359L144.524,23.53A72.7,72.7,0,0,0,90.924,0Z" transform="translate(530.411 110.864)" fill="#fff"/>
    </g>
  </g>
</svg>
